<?xml version="1.0" encoding="UTF-8" standalone="no"?>
<!DOCTYPE svg PUBLIC "-//W3C//DTD SVG 1.1//EN" "http://www.w3.org/Graphics/SVG/1.1/DTD/svg11.dtd">
<svg width="100%" height="100%" viewBox="0 0 800 800" version="1.1" xmlns="http://www.w3.org/2000/svg" xmlns:xlink="http://www.w3.org/1999/xlink" xml:space="preserve" xmlns:serif="http://www.serif.com/" style="fill-rule:evenodd;clip-rule:evenodd;stroke-linejoin:round;stroke-miterlimit:2;">
    <g transform="matrix(1,0,0,1,-7.99098,2.35944)">
        <path d="M778.506,72.215C778.506,51.939 762.044,35.477 741.767,35.477L85.552,35.477C65.275,35.477 48.813,51.939 48.813,72.215L48.813,723.066C48.813,743.343 65.275,759.805 85.552,759.805L741.767,759.805C762.044,759.805 778.506,743.343 778.506,723.066L778.506,72.215Z" style="fill:rgb(255,194,194);"/>
    </g>
    <g transform="matrix(1,0,0,1,98.4985,512.328)">
        <path d="M431.736,136.673C431.736,119.78 418.021,106.064 401.128,106.064L137.253,106.064C120.36,106.064 106.644,119.78 106.644,136.673L106.644,197.891C106.644,214.784 120.36,228.5 137.253,228.5L401.128,228.5C418.021,228.5 431.736,214.784 431.736,197.891L431.736,136.673Z" style="fill:rgb(83,171,255);"/>
    </g>
    <g transform="matrix(1.86363,0,0,0.670856,-250.578,37.3548)">
        <rect x="169.383" y="46.37" width="364.352" height="323.141" style="fill:rgb(77,77,77);"/>
    </g>
    <g transform="matrix(1.18479,0,0,0.231919,4.45894,428.971)">
        <rect x="169.383" y="46.37" width="364.352" height="323.141" style="fill:rgb(64,64,64);"/>
    </g>
    <g transform="matrix(1.18479,0,0,0.231919,4.45894,517.35)">
        <rect x="169.383" y="46.37" width="364.352" height="323.141" style="fill:rgb(64,64,64);"/>
    </g>
    <g transform="matrix(1,0,0,1,-41.5545,192.403)">
        <path d="M431.736,136.673C431.736,119.78 418.021,106.064 401.128,106.064L137.253,106.064C120.36,106.064 106.644,119.78 106.644,136.673L106.644,197.891C106.644,214.784 120.36,228.5 137.253,228.5L401.128,228.5C418.021,228.5 431.736,214.784 431.736,197.891L431.736,136.673Z" style="fill:rgb(13,13,13);"/>
    </g>
</svg>
